<mxfile host="app.diagrams.net" modified="2021-11-14T17:55:04.434Z" agent="5.0 (X11; Linux x86_64) AppleWebKit/537.36 (KHTML, like Gecko) Chrome/88.0.4324.146 Safari/537.36" etag="hqdV6ioFlp_S3wEvKVet" version="15.7.3" type="github">
  <diagram id="1Sm8YSRa9IpsmVcnDnPX" name="Page-1">
    <mxGraphModel dx="546" dy="310" grid="1" gridSize="10" guides="1" tooltips="1" connect="1" arrows="1" fold="1" page="1" pageScale="1" pageWidth="827" pageHeight="1169" math="0" shadow="0">
      <root>
        <mxCell id="0" />
        <mxCell id="1" parent="0" />
        <mxCell id="yOU57gguwdXV-IdS6L99-62" value="write cqe" style="edgeStyle=orthogonalEdgeStyle;rounded=0;orthogonalLoop=1;jettySize=auto;html=1;entryX=0.549;entryY=0.084;entryDx=0;entryDy=0;entryPerimeter=0;fontSize=10;strokeWidth=1;" parent="1" source="yOU57gguwdXV-IdS6L99-1" target="yOU57gguwdXV-IdS6L99-61" edge="1">
          <mxGeometry relative="1" as="geometry">
            <Array as="points">
              <mxPoint x="610" y="157" />
              <mxPoint x="610" y="219" />
            </Array>
          </mxGeometry>
        </mxCell>
        <mxCell id="yOU57gguwdXV-IdS6L99-1" value="" style="pointerEvents=1;shadow=0;dashed=0;html=1;strokeColor=none;fillColor=#DF8C42;labelPosition=center;verticalLabelPosition=bottom;verticalAlign=top;align=center;outlineConnect=0;shape=mxgraph.veeam2.linux;" parent="1" vertex="1">
          <mxGeometry x="400" y="140" width="34" height="34" as="geometry" />
        </mxCell>
        <mxCell id="yOU57gguwdXV-IdS6L99-18" value="write sqe" style="edgeStyle=orthogonalEdgeStyle;rounded=0;orthogonalLoop=1;jettySize=auto;html=1;fontSize=10;strokeWidth=1;entryX=0.466;entryY=0.922;entryDx=0;entryDy=0;entryPerimeter=0;" parent="1" source="yOU57gguwdXV-IdS6L99-2" target="yOU57gguwdXV-IdS6L99-19" edge="1">
          <mxGeometry relative="1" as="geometry">
            <mxPoint x="240" y="290" as="targetPoint" />
          </mxGeometry>
        </mxCell>
        <mxCell id="yOU57gguwdXV-IdS6L99-2" value="" style="html=1;verticalLabelPosition=bottom;align=center;labelBackgroundColor=#ffffff;verticalAlign=top;strokeWidth=2;strokeColor=#0080F0;shadow=0;dashed=0;shape=mxgraph.ios7.icons.user;" parent="1" vertex="1">
          <mxGeometry x="403" y="320" width="31" height="30" as="geometry" />
        </mxCell>
        <mxCell id="yOU57gguwdXV-IdS6L99-8" value="" style="rounded=0;whiteSpace=wrap;html=1;" parent="1" vertex="1">
          <mxGeometry x="190" y="220" width="210" height="60" as="geometry" />
        </mxCell>
        <mxCell id="yOU57gguwdXV-IdS6L99-9" value="&lt;font style=&quot;font-size: 5px ; line-height: 70%&quot;&gt;&lt;b&gt;Read&lt;/b&gt;&lt;br&gt;&lt;br&gt;&lt;div style=&quot;text-align: left&quot;&gt;fd: 11&lt;/div&gt;&lt;div style=&quot;text-align: left&quot;&gt;&lt;br&gt;&lt;/div&gt;&lt;div style=&quot;text-align: left&quot;&gt;user_data: 4&lt;/div&gt;&lt;/font&gt;" style="text;html=1;fillColor=none;align=center;verticalAlign=middle;whiteSpace=wrap;rounded=0;perimeterSpacing=7;horizontal=1;spacingTop=-7;spacing=0;fontSize=5;dashed=1;spacingLeft=1;" parent="1" vertex="1">
          <mxGeometry x="273.5" y="220" width="33" height="60" as="geometry" />
        </mxCell>
        <mxCell id="yOU57gguwdXV-IdS6L99-11" value="&lt;font style=&quot;line-height: 70%&quot;&gt;&lt;b style=&quot;font-size: 5px&quot;&gt;Write&lt;/b&gt;&lt;br&gt;&lt;br&gt;&lt;div style=&quot;text-align: left ; font-size: 5px&quot;&gt;&lt;span&gt;fd: 14&lt;/span&gt;&lt;/div&gt;&lt;div style=&quot;text-align: left&quot;&gt;&lt;br&gt;&lt;/div&gt;&lt;div style=&quot;text-align: left&quot;&gt;&lt;span&gt;user_data: 3&lt;/span&gt;&lt;/div&gt;&lt;/font&gt;" style="text;html=1;fillColor=none;align=center;verticalAlign=middle;whiteSpace=wrap;rounded=0;perimeterSpacing=7;strokeColor=#000000;horizontal=1;spacingTop=-7;spacing=-2;fontSize=5;dashed=1;spacingLeft=1;" parent="1" vertex="1">
          <mxGeometry x="306.5" y="220" width="33" height="60" as="geometry" />
        </mxCell>
        <mxCell id="yOU57gguwdXV-IdS6L99-12" value="&lt;font style=&quot;font-size: 5px ; line-height: 70%&quot;&gt;&lt;b&gt;Close&lt;/b&gt;&lt;br&gt;&lt;br&gt;&lt;div style=&quot;text-align: left&quot;&gt;fd: 10&lt;/div&gt;&lt;div style=&quot;text-align: left&quot;&gt;&lt;br&gt;&lt;/div&gt;&lt;div style=&quot;text-align: left&quot;&gt;user_data: 5&lt;/div&gt;&lt;/font&gt;" style="text;html=1;fillColor=none;align=center;verticalAlign=middle;whiteSpace=wrap;rounded=0;perimeterSpacing=7;strokeColor=#000000;horizontal=1;spacingTop=-7;spacing=0;fontSize=5;dashed=1;spacingLeft=1;" parent="1" vertex="1">
          <mxGeometry x="240.5" y="220" width="33" height="60" as="geometry" />
        </mxCell>
        <mxCell id="yOU57gguwdXV-IdS6L99-45" value="read sqe" style="edgeStyle=orthogonalEdgeStyle;rounded=0;orthogonalLoop=1;jettySize=auto;html=1;fontSize=10;strokeWidth=1;exitX=0.53;exitY=0.089;exitDx=0;exitDy=0;exitPerimeter=0;" parent="1" target="yOU57gguwdXV-IdS6L99-1" edge="1" source="yOU57gguwdXV-IdS6L99-12">
          <mxGeometry relative="1" as="geometry">
            <mxPoint x="323" y="220" as="sourcePoint" />
            <Array as="points">
              <mxPoint x="258" y="157" />
            </Array>
          </mxGeometry>
        </mxCell>
        <mxCell id="yOU57gguwdXV-IdS6L99-19" value="&lt;font style=&quot;font-size: 5px ; line-height: 50%&quot;&gt;&lt;br style=&quot;font-size: 5px&quot;&gt;&lt;/font&gt;" style="text;html=1;fillColor=none;align=center;verticalAlign=middle;whiteSpace=wrap;rounded=0;perimeterSpacing=7;horizontal=1;spacingTop=-7;spacing=-1;fontSize=5;dashed=1;" parent="1" vertex="1">
          <mxGeometry x="339.5" y="240" width="33" height="40" as="geometry" />
        </mxCell>
        <mxCell id="yOU57gguwdXV-IdS6L99-20" value="&lt;font style=&quot;font-size: 5px ; line-height: 50%&quot;&gt;&lt;br style=&quot;font-size: 5px&quot;&gt;&lt;/font&gt;" style="text;html=1;fillColor=none;align=center;verticalAlign=middle;whiteSpace=wrap;rounded=0;perimeterSpacing=7;horizontal=1;spacingTop=-7;spacing=-1;fontSize=5;dashed=1;" parent="1" vertex="1">
          <mxGeometry x="207.5" y="240" width="33" height="40" as="geometry" />
        </mxCell>
        <mxCell id="yOU57gguwdXV-IdS6L99-27" value="&lt;font style=&quot;font-size: 5px ; line-height: 50%&quot;&gt;&lt;br style=&quot;font-size: 5px&quot;&gt;&lt;/font&gt;" style="text;html=1;fillColor=none;align=center;verticalAlign=middle;whiteSpace=wrap;rounded=0;perimeterSpacing=7;horizontal=1;spacingTop=-7;spacing=-1;fontSize=5;dashed=1;strokeColor=#000000;" parent="1" vertex="1">
          <mxGeometry x="190" y="220" width="17.5" height="60" as="geometry" />
        </mxCell>
        <mxCell id="yOU57gguwdXV-IdS6L99-42" value="SQE&lt;br style=&quot;font-size: 4px;&quot;&gt;op: recv&lt;br style=&quot;font-size: 4px;&quot;&gt;fd: 53&lt;br style=&quot;font-size: 4px;&quot;&gt;user_data: 98" style="ellipse;shape=cloud;whiteSpace=wrap;html=1;dashed=1;fontSize=4;strokeColor=#000000;fillColor=none;gradientColor=none;verticalAlign=middle;" parent="1" vertex="1">
          <mxGeometry x="350" y="290" width="41.5" height="30" as="geometry" />
        </mxCell>
        <mxCell id="yOU57gguwdXV-IdS6L99-43" value="&lt;font style=&quot;font-size: 17px&quot;&gt;SQ&lt;/font&gt;" style="text;html=1;strokeColor=none;fillColor=none;align=center;verticalAlign=middle;whiteSpace=wrap;rounded=0;dashed=1;fontSize=4;" parent="1" vertex="1">
          <mxGeometry x="150" y="220" width="40" height="60" as="geometry" />
        </mxCell>
        <mxCell id="yOU57gguwdXV-IdS6L99-49" value="" style="rounded=0;whiteSpace=wrap;html=1;" parent="1" vertex="1">
          <mxGeometry x="434" y="220" width="210" height="60" as="geometry" />
        </mxCell>
        <mxCell id="yOU57gguwdXV-IdS6L99-50" value="&lt;font style=&quot;font-size: 17px&quot;&gt;CQ&lt;/font&gt;" style="text;html=1;strokeColor=none;fillColor=none;align=center;verticalAlign=middle;whiteSpace=wrap;rounded=0;dashed=1;fontSize=4;" parent="1" vertex="1">
          <mxGeometry x="644" y="220" width="40" height="60" as="geometry" />
        </mxCell>
        <mxCell id="yOU57gguwdXV-IdS6L99-51" value="" style="text;html=1;fillColor=none;align=center;verticalAlign=middle;whiteSpace=wrap;rounded=0;perimeterSpacing=7;strokeColor=#000000;horizontal=1;spacingTop=-7;spacing=-1;fontSize=5;dashed=1;" parent="1" vertex="1">
          <mxGeometry x="460" y="220" width="33" height="60" as="geometry" />
        </mxCell>
        <mxCell id="yOU57gguwdXV-IdS6L99-56" value="&lt;font style=&quot;font-size: 5px ; line-height: 100%&quot;&gt;&lt;br&gt;&lt;div style=&quot;text-align: left&quot;&gt;res: 0&lt;/div&gt;&lt;div style=&quot;text-align: left&quot;&gt;&lt;br&gt;&lt;/div&gt;&lt;div style=&quot;text-align: left&quot;&gt;user_data: 1&lt;/div&gt;&lt;/font&gt;" style="text;html=1;fillColor=none;align=center;verticalAlign=middle;whiteSpace=wrap;rounded=0;perimeterSpacing=7;strokeColor=#000000;horizontal=1;spacingTop=-7;spacing=-1;fontSize=5;dashed=1;" parent="1" vertex="1">
          <mxGeometry x="526" y="220" width="33" height="60" as="geometry" />
        </mxCell>
        <mxCell id="yOU57gguwdXV-IdS6L99-63" value="read cqe" style="edgeStyle=orthogonalEdgeStyle;rounded=0;orthogonalLoop=1;jettySize=auto;html=1;entryX=1.002;entryY=0.491;entryDx=0;entryDy=0;entryPerimeter=0;fontSize=10;strokeWidth=1;exitX=0.502;exitY=0.943;exitDx=0;exitDy=0;exitPerimeter=0;" parent="1" source="yOU57gguwdXV-IdS6L99-58" target="yOU57gguwdXV-IdS6L99-2" edge="1">
          <mxGeometry x="-0.5982" relative="1" as="geometry">
            <Array as="points">
              <mxPoint x="510" y="335" />
            </Array>
            <mxPoint as="offset" />
          </mxGeometry>
        </mxCell>
        <mxCell id="yOU57gguwdXV-IdS6L99-57" value="&lt;font style=&quot;font-size: 5px ; line-height: 100%&quot;&gt;&lt;br&gt;&lt;div style=&quot;text-align: left&quot;&gt;res: 127&lt;/div&gt;&lt;div style=&quot;text-align: left&quot;&gt;&lt;br&gt;&lt;/div&gt;&lt;div style=&quot;text-align: left&quot;&gt;user_data: 0&lt;/div&gt;&lt;/font&gt;" style="text;html=1;fillColor=none;align=center;verticalAlign=middle;whiteSpace=wrap;rounded=0;perimeterSpacing=7;strokeColor=#000000;horizontal=1;spacingTop=-7;spacing=-1;fontSize=5;dashed=1;" parent="1" vertex="1">
          <mxGeometry x="559" y="220" width="33" height="60" as="geometry" />
        </mxCell>
        <mxCell id="yOU57gguwdXV-IdS6L99-58" value="&lt;font style=&quot;font-size: 5px ; line-height: 100%&quot;&gt;&lt;br&gt;&lt;div style=&quot;text-align: left&quot;&gt;res: 127&lt;/div&gt;&lt;div style=&quot;text-align: left&quot;&gt;&lt;br&gt;&lt;/div&gt;&lt;div style=&quot;text-align: left&quot;&gt;user_data: 2&lt;/div&gt;&lt;/font&gt;" style="text;html=1;fillColor=none;align=center;verticalAlign=middle;whiteSpace=wrap;rounded=0;perimeterSpacing=7;strokeColor=#000000;horizontal=1;spacingTop=-7;spacing=-1;fontSize=5;dashed=1;" parent="1" vertex="1">
          <mxGeometry x="493" y="220" width="33" height="60" as="geometry" />
        </mxCell>
        <mxCell id="yOU57gguwdXV-IdS6L99-59" value="" style="text;html=1;fillColor=none;align=center;verticalAlign=middle;whiteSpace=wrap;rounded=0;perimeterSpacing=7;strokeColor=#000000;horizontal=1;spacingTop=-7;spacing=-2;fontSize=5;dashed=1;spacingLeft=1;" parent="1" vertex="1">
          <mxGeometry x="370" y="220" width="30" height="60" as="geometry" />
        </mxCell>
        <mxCell id="yOU57gguwdXV-IdS6L99-61" value="" style="text;html=1;fillColor=none;align=center;verticalAlign=middle;whiteSpace=wrap;rounded=0;perimeterSpacing=7;strokeColor=#000000;horizontal=1;spacingTop=-7;spacing=-1;fontSize=5;dashed=1;" parent="1" vertex="1">
          <mxGeometry x="592" y="220" width="33" height="60" as="geometry" />
        </mxCell>
        <mxCell id="yOU57gguwdXV-IdS6L99-64" value="head" style="text;html=1;strokeColor=none;fillColor=none;align=center;verticalAlign=middle;whiteSpace=wrap;rounded=0;dashed=1;fontSize=5;" parent="1" vertex="1">
          <mxGeometry x="489.5" y="184" width="40" height="20" as="geometry" />
        </mxCell>
        <mxCell id="yOU57gguwdXV-IdS6L99-66" style="rounded=0;orthogonalLoop=1;jettySize=auto;html=1;fontSize=5;strokeWidth=0;exitX=0.5;exitY=1;exitDx=0;exitDy=0;entryX=0.511;entryY=0.108;entryDx=0;entryDy=0;entryPerimeter=0;" parent="1" source="yOU57gguwdXV-IdS6L99-64" target="yOU57gguwdXV-IdS6L99-58" edge="1">
          <mxGeometry relative="1" as="geometry">
            <mxPoint x="253.695652173913" y="194" as="sourcePoint" />
            <mxPoint x="267" y="230" as="targetPoint" />
          </mxGeometry>
        </mxCell>
        <mxCell id="yOU57gguwdXV-IdS6L99-67" value="tail" style="text;html=1;strokeColor=none;fillColor=none;align=center;verticalAlign=middle;whiteSpace=wrap;rounded=0;dashed=1;fontSize=5;" parent="1" vertex="1">
          <mxGeometry x="552" y="184" width="40" height="20" as="geometry" />
        </mxCell>
        <mxCell id="yOU57gguwdXV-IdS6L99-68" style="edgeStyle=none;rounded=0;orthogonalLoop=1;jettySize=auto;html=1;entryX=0.44;entryY=0.068;entryDx=0;entryDy=0;entryPerimeter=0;fontSize=4;strokeWidth=0;dashed=1;dashPattern=1 1;" parent="1" source="yOU57gguwdXV-IdS6L99-67" target="yOU57gguwdXV-IdS6L99-57" edge="1">
          <mxGeometry relative="1" as="geometry">
            <mxPoint x="568.98" y="194" as="sourcePoint" />
            <mxPoint x="591.9979999999999" y="229.36399999999992" as="targetPoint" />
          </mxGeometry>
        </mxCell>
        <mxCell id="9BPy6vXQbfZHPjZd8CJ2-7" style="edgeStyle=orthogonalEdgeStyle;rounded=0;orthogonalLoop=1;jettySize=auto;html=1;exitX=0.5;exitY=0;exitDx=0;exitDy=0;entryX=0.499;entryY=0.905;entryDx=0;entryDy=0;entryPerimeter=0;strokeWidth=0;" edge="1" parent="1" source="9BPy6vXQbfZHPjZd8CJ2-5" target="yOU57gguwdXV-IdS6L99-11">
          <mxGeometry relative="1" as="geometry" />
        </mxCell>
        <mxCell id="9BPy6vXQbfZHPjZd8CJ2-5" value="tail" style="text;html=1;strokeColor=none;fillColor=none;align=center;verticalAlign=middle;whiteSpace=wrap;rounded=0;dashed=1;fontSize=5;" vertex="1" parent="1">
          <mxGeometry x="308.25" y="300" width="29.5" height="20" as="geometry" />
        </mxCell>
        <mxCell id="9BPy6vXQbfZHPjZd8CJ2-9" style="edgeStyle=orthogonalEdgeStyle;rounded=0;orthogonalLoop=1;jettySize=auto;html=1;entryX=0.5;entryY=0.905;entryDx=0;entryDy=0;entryPerimeter=0;strokeWidth=0;" edge="1" parent="1" source="9BPy6vXQbfZHPjZd8CJ2-8" target="yOU57gguwdXV-IdS6L99-12">
          <mxGeometry relative="1" as="geometry" />
        </mxCell>
        <mxCell id="9BPy6vXQbfZHPjZd8CJ2-8" value="head" style="text;html=1;strokeColor=none;fillColor=none;align=center;verticalAlign=middle;whiteSpace=wrap;rounded=0;dashed=1;fontSize=5;" vertex="1" parent="1">
          <mxGeometry x="242.25" y="300" width="29.5" height="20" as="geometry" />
        </mxCell>
      </root>
    </mxGraphModel>
  </diagram>
</mxfile>
